<?xml version="1.0" encoding="utf-8"?>
<!-- Generator: Adobe Illustrator 25.0.1, SVG Export Plug-In . SVG Version: 6.00 Build 0)  -->
<svg version="1.1" xmlns="http://www.w3.org/2000/svg" xmlns:xlink="http://www.w3.org/1999/xlink" x="0px" y="0px"
	 viewBox="0 0 326.37 305.01" style="enable-background:new 0 0 326.37 305.01;" xml:space="preserve">
<style type="text/css">
	.st0{opacity:0.4;fill:#9D9D9C;}
	.st1{opacity:0.35;clip-path:url(#XMLID_6_);fill:#233877;}
	.st2{opacity:0.35;clip-path:url(#XMLID_7_);fill:#233877;}
	.st3{opacity:0.37;clip-path:url(#XMLID_8_);fill:#F6A97E;}
	.st4{fill:#F6A97E;}
	.st5{fill:#3C3C3B;}
	.st6{clip-path:url(#XMLID_9_);fill:#C31632;}
	.st7{fill:#637DBE;}
	.st8{fill:#FFFFFF;}
	.st9{fill:#5068AF;}
	.st10{fill:#C31632;}
	.st11{fill:#706F6F;}
</style>
<g id="BACKGROUND">
</g>
<g id="OBJECTS">
	<g>
		<path class="st0" d="M215.51,181.37l2.4-0.69l1.6-36.95c3.09,0.8,6.52-1.03,6.52-1.03c1.83-7.55-5.26-41.29-5.26-41.29l-15.1-7.21
			l-3.15-2.52c-2.97-6.52,1.94-4.35,3.61-11.32c0,0,0.2-0.94,0.45-2.41c0.04,0,0.08,0.01,0.13,0.01c1.77,0,3.2-1.23,3.2-2.75
			c0-1.09-0.74-2.02-1.81-2.47c0.54-0.47,0.88-1.12,0.91-1.81c0.68-0.55,1.08-1.36,0.99-2.22c-0.04-0.41-0.2-0.79-0.43-1.11
			c0.76-0.55,1.21-1.41,1.11-2.32c-0.11-1-0.85-1.8-1.84-2.14c0.31-0.41,0.49-0.9,0.49-1.43c0-1.45-1.36-2.63-3.03-2.63
			c-0.02,0-0.04,0-0.06,0c-0.07-1.4-1.39-2.52-3.02-2.52c-0.3,0-0.58,0.04-0.85,0.11c-0.35-1.12-1.52-1.94-2.92-1.94
			c-1.04,0-1.96,0.46-2.51,1.15c-0.55-0.63-1.43-1.04-2.41-1.04c-1.02,0-1.92,0.44-2.47,1.11c-0.53-0.4-1.23-0.65-1.99-0.65
			c-1.26,0-2.35,0.67-2.8,1.63c-0.31-0.09-0.63-0.14-0.97-0.14c-1.67,0-3.03,1.18-3.03,2.63c0,0.55,0.2,1.07,0.53,1.49
			c-1.24,0.33-2.14,1.33-2.14,2.51c0,0.76,0.37,1.44,0.97,1.92c-0.82,0.47-1.37,1.28-1.37,2.2c0,0.88,0.5,1.66,1.27,2.14
			c-0.83,0.47-1.39,1.28-1.39,2.21c0,1.13,0.82,2.09,1.98,2.46c-0.05,0.24-0.08,0.48-0.08,0.74c0,1.58,1,2.86,2.23,2.86
			c0.23,0,0.45-0.04,0.66-0.13c0.34,1.49,0.73,2.79,1.12,3.33c0,0,4.74,5.95,2.68,9.84c-0.23,0.43-19.61,12.24-19.61,12.24
			c-7.78,13.04,6.86,43.12,6.86,43.12l-0.46,32.37l4.58,0.69c0,0,0.57,31.57-1.03,36.49c-1.6,4.92-3.89,41.87-5.49,45.53
			c-1.6,3.66,0.57,2.97,0.92,5.38c0.34,2.4-3.2,4-1.03,9.04c2.17,5.03,11.44,2.29,12.35,0.8c0.92-1.49-3.09-8.24-2.17-9.49
			s0.57-1.49,0.46-3.55c-0.11-2.06,0-4.12,0-4.12c0.23-12.01,6.75-41.98,6.75-41.98c1.83-3.2,8.92-37.75,8.92-37.75l-3.66,37.75
			c-3.89,12.24,0.23,39.24,0.8,40.72c0.57,1.49,1.26,3.77,0.8,7.09c-0.46,3.32,1.14,4.8,1.14,4.8l-2.63,5.15
			c5.38,4.35,25.39,1.37,25.39,1.37s2.17-4.69-4.8-4.46c-6.98,0.23-8.46-4-8.46-4c1.72-1.94-0.69-5.15,0.11-6.06
			c0.8-0.92-0.8-34.09,1.72-43.12C213.68,209.97,215.51,181.37,215.51,181.37z"/>
		<path class="st0" d="M260.28,71.01c0,0,1.38-7.29,12.11-4.94c10.73,2.35,23.94,27.5,8.8,36.43l11.01,5.88
			c0,0,14.03,23.74,10.73,35.02c0,0-4.13,2.35-10.46-0.7l1.38,11.75l-3.03,0.94c0,0,4.68,26.09-14.31,64.87l2.48,42.07l5.23,10.34
			c0,0,10.73,3.76,3.85,4.47c-6.88,0.7-10.46-0.47-11.01-1.88c-0.55-1.41-2.2-8.46-2.2-8.46s-1.1,9.64-1.38,8.93
			c-0.28-0.71-2.2-11.05-2.2-11.05l2.2-5.17l-5.23-20.21l-6.6,16.69c0,0-1.38,13.63-0.28,14.57c1.1,0.94,6.33,2.59,2.75,3.76
			c-3.58,1.18-9.91,0.71-9.63-1.41c0.11-0.86,0.54-3.23,1.01-5.74c0.69-3.68,1.47-7.66,1.47-7.66l-3.3,7.99
			c0,0-0.28-10.81,3.03-13.63c3.3-2.82,0-28.44,9.35-35.96l-0.55-10.81c0,0-3.85-15.51-10.18-24.68
			c-6.33-9.17,4.95-27.26,4.95-27.26l-0.83-2.12c0,0-2.2,1.65-6.33-5.88c-4.13-7.52-13.76-32.9-5.23-37.84
			c8.53-4.94,12.93-5.64,12.93-5.64s-9.63-3.06-9.35-10.81C251.75,85.11,254.5,68.89,260.28,71.01z"/>
		<path class="st0" d="M60.02,213.51c0,0,0.62-4.53,0.99-11.27c-1.98,1.04-2.02,1.04-0.05,0c0.72-13.02,0.56-34.3-6.77-47.03
			l2.69-0.38c0.83-0.12,1.52-0.72,1.74-1.53c0.11-0.39,0.32-0.73,0.62-1c2.73-2.48,16.94-15.57,19-20.79c0,0-9.99-20.5-19.62-25.76
			l-5.43-2.1c0,0,7.88-10.86,7.01-22.25c-0.88-11.39-7.75-25.84-17.54-18c0,0-5.95-4.58-11.03,4.88C26.54,77.73,29,105.93,29,105.93
			s-9.28,11.03-8.23,35.56c0,0-6.83,28.21-7.36,28.73c-0.53,0.53-4.38,6.31-1.75,11.56c2.63,5.26,4.03,1.58,4.03,1.58
			s2.98-3.33,1.23-7.18c0,0,0.53-3.5-0.35-5.26l10.17-25.58v4.12c0,0-10.12,17.84-2.42,53.79c0.02,0.01,0,0.02,0.03,0.03
			c0.71,3.31,1.55,6.78,2.58,10.4c0,0,5.07,25.58,5.6,55.19l-5.44,10.51c0,0-5.96,0.7-3.68,1.93c2.28,1.23,7.18,0.18,7.18,0.18
			l2.98-7.01l0.7,7.01c1.58-0.18,3.15-10.69,3.15-10.69l-2.45-3.15c0,0,8.88-32.61,2.63-54.49c-0.1-0.34,0.32-2.82,0.91-6.45
			c2.83,0.24,5.93,0.22,9.08-0.21v0c1.05-0.14,1.15-0.14,0.1,0c1.44,4.92,2.93,8.87,4.29,10.51l15.07,49.59l-0.88,11.91
			c0,0-3.15,1.05-0.53,1.93c2.63,0.88,6.13,0.7,6.13-1.23s-1.93-12.62-1.93-13.32S70.01,224.37,60.02,213.51z M50.68,148.56
			l8.98-25.29l10.34,9.81L56.87,149.9L50.68,148.56z"/>
		<path class="st0" d="M155.71,276.63c-9.08-0.72-15.85-6.34-15.85-6.34l4.03-93.81l2.16-0.29l-0.72-30.98
			c1.94,0.31,3.52,0.41,4.75,0.42c1.95,0.02,3.66-1.32,4.1-3.22c3.76-16.13-0.93-32.23-3.17-38.53c-0.62-1.74-1.93-3.15-3.62-3.9
			l-12.38-5.49l-1.64-2.46l-0.39-3.83c-0.12-1.14,0.26-2.27,1.04-3.1c0.52-0.55,0.86-1.24,1-1.99l0.84-4.62c0.01,0,0.02,0,0.03,0
			c1.55,0,2.81-1.39,2.81-3.1c0-1.16-0.58-2.18-1.44-2.71c4.32-13.35-2.74-16.1-2.74-16.1c-13.26-5.48-18.16,3.03-18.16,3.03
			c-3.75-0.58-3.31,4.61-3.31,4.61l-0.22,5.96c-0.03,0.73,0.01,1.46,0.11,2.19c-1.25,0.31-2.19,1.54-2.19,3.02
			c0,1.71,1.26,3.1,2.81,3.1c0.24,0,0.47-0.04,0.68-0.1l1.06,4.7c0.13,0.57,0.4,1.11,0.79,1.55l0.8,0.9
			c0.49,0.56,0.73,1.29,0.65,2.03l-0.46,4.61l-1.73,2.16l-12.72,5.64c-1.69,0.75-3,2.16-3.62,3.9c-2.24,6.3-6.93,22.4-3.17,38.53
			c0.44,1.9,2.15,3.24,4.1,3.22c1.23-0.01,2.81-0.12,4.75-0.42l-0.72,30.98l2.16,0.29l4.03,93.81c0,0-6.77,5.62-15.85,6.34
			c0,0-2.45,0.14-1.59,2.74c0,0,4.04,2.02,15.28,1.01c11.24-1.01,13.83-0.86,13.83-0.86l-3.03-8.5l1.15-2.88l-1.44-4.47l6.48-81.68
			l6.48,81.68l-1.44,4.47l1.15,2.88l-3.03,8.5c0,0,2.59-0.14,13.83,0.86c11.24,1.01,15.28-1.01,15.28-1.01
			C158.16,276.77,155.71,276.63,155.71,276.63z"/>
		<path d="M140.51,284.48c0,0.4,2.41,8.02,0.8,8.42c-1.6,0.4-5.62,0.4-6.42,0c-0.8-0.4-1.6-0.4-3.21,0.4c-1.6,0.8-16.05,1.2-16.85,0
			c-0.8-1.2,11.23-4.01,16.05-8.42C135.7,280.47,140.51,284.48,140.51,284.48z"/>
		<path d="M166.18,289.3c0,0,8.02,5.21,7.62,6.82c-0.4,1.6-10.43,2.81-14.44,1.6c-4.01-1.2-6.02-1.6-3.21-4.81
			C158.96,289.7,161.77,287.29,166.18,289.3z"/>
		<g>
			<defs>
				<path id="XMLID_4_" d="M167.39,164.95c0,0,3.61,30.08,1.6,46.53c-2.01,16.45,2.41,38.51,0.8,47.33
					c-1.6,8.82-3.61,28.88-1.2,31.29c0,0-7.62,4.41-10.43,0c0,0-6.02-36.9-7.62-49.74c-1.6-12.84-8.02-60.97-9.63-61.37
					c-1.6-0.4,4.01,50.94,2.81,61.37c-1.2,10.43-2.81,39.31-1.6,45.73c0,0-9.63,2.81-12.44-0.4c0,0,0.8-32.09,0-40.11
					c-0.8-8.02-11.23-59.77-6.42-75.81C128.08,153.71,152.95,124.03,167.39,164.95z"/>
			</defs>
			<use xlink:href="#XMLID_4_"  style="overflow:visible;fill:#5068AF;"/>
			<clipPath id="XMLID_6_">
				<use xlink:href="#XMLID_4_"  style="overflow:visible;"/>
			</clipPath>
			<path class="st1" d="M171.8,185c0,0-24.47-1.34-31.69-16.71c-7.22-15.38,0,0,0,0s-17.25,18.32-24.87,12.7
				s28.48-30.08,28.48-30.08S175.41,168.16,171.8,185z"/>
		</g>
		<g>
			<defs>
				<path id="XMLID_3_" d="M158.36,77.9h-16.45l-18.65,10.83l-3.01,29.28c0,0,2.81,47.33-1.2,56.16s15.24-1.2,17.25-4.01
					c2.01-2.81,4.01-8.02,4.01-8.02s-2.01,8.02,9.63,12.84c11.63,4.81,25.67,7.22,24.87,5.62c-0.8-1.6-4.81-22.06-5.62-26.88
					c-0.8-4.81,0.4-28.08,0.4-28.08S183.03,88.73,158.36,77.9z"/>
			</defs>
			<use xlink:href="#XMLID_3_"  style="overflow:visible;fill:#5068AF;"/>
			<clipPath id="XMLID_7_">
				<use xlink:href="#XMLID_3_"  style="overflow:visible;"/>
			</clipPath>
			<path class="st2" d="M118.45,131.85c0,0,8.02-1.6,10.83-2.41c0,0,40.51,18.05,47.33,13.64c6.82-4.41-18.85-12.03-18.85-12.03
				l-36.5-10.43L118.45,131.85z"/>
			<path class="st2" d="M168.99,102.97c-0.57-0.04-4.01,14.66-7.62,14.75c-3.61,0.09-10.83,0.09-10.83,0.09l-1.2-2.01
				c0,0-15.75-0.89-17.65-1.2c-4.81-0.8-6.02-17.05-6.02-17.05s-7.22,13.44-8.02,16.25c-0.8,2.81,3.21,9.36,3.21,9.36
				s43.72,9.09,47.73,1.47C172.6,117.01,175.41,103.37,168.99,102.97z"/>
		</g>
		<g>
			<defs>
				<path id="XMLID_2_" d="M156.96,68.27c0,0.4,0,7.62,1.6,9.63c1.6,2.01-8.02,2.41-8.02,2.41l-7.09-4.89c0,0,1.47-6.74,1.07-9.95
					C144.12,62.26,156.96,68.27,156.96,68.27z"/>
			</defs>
			<use xlink:href="#XMLID_2_"  style="overflow:visible;fill:#F6A97E;"/>
			<clipPath id="XMLID_8_">
				<use xlink:href="#XMLID_2_"  style="overflow:visible;"/>
			</clipPath>
			<ellipse class="st3" cx="151.34" cy="63.46" rx="10.83" ry="10.43"/>
		</g>
		<ellipse class="st4" cx="151.34" cy="54.84" rx="12.84" ry="17.05"/>
		<path class="st5" d="M164.17,53.83l1.21-1.6c0,0,0.8-10.03-1.2-12.84c-2.01-2.81-8.83-8.4-14.04-9.23
			c-7.62-1.2-3.21,6.82-7.22,5.21c-4.01-1.6-8.82,3.21-7.22,8.42c1.6,5.21,2.81,10.83,2.81,10.83s-0.4-9.23,1.6-8.42
			c2.01,0.8,6.42,4.41,12.03-0.4C155.02,43.35,163.37,40.59,164.17,53.83z"/>
		<path class="st4" d="M163.23,54.74c-0.55,2-0.13,3.87,0.94,4.16c1.07,0.29,2.38-1.09,2.93-3.1c0.55-2,0.13-3.87-0.94-4.16
			C165.1,51.35,163.78,52.73,163.23,54.74z"/>
		<path class="st4" d="M139.85,54.74c0.55,2,0.13,3.87-0.94,4.16c-1.07,0.29-2.38-1.09-2.93-3.1c-0.55-2-0.13-3.87,0.94-4.16
			C137.99,51.35,139.3,52.73,139.85,54.74z"/>
		<g>
			<defs>
				<polygon id="XMLID_1_" points="158.16,75.09 159.77,80.31 151.34,109.99 144.51,129.49 140.11,93.95 141.05,79.77 142.92,75.09 
					150.14,79.51 				"/>
			</defs>
			<use xlink:href="#XMLID_1_"  style="overflow:visible;fill:#FEFEFE;"/>
			<clipPath id="XMLID_9_">
				<use xlink:href="#XMLID_1_"  style="overflow:visible;"/>
			</clipPath>
			<path class="st6" d="M150.54,79.51c0,0,3.21,4.01,2.41,4.41c-0.8,0.4-1.6,1.6-2.81,1.6s-2.81-2.01-2.81-2.01L150.54,79.51z"/>
			<polygon class="st6" points="150.14,85.52 150.34,101.35 146.43,118.92 144.12,114 144.52,100.77 			"/>
		</g>
		<path class="st7" d="M158.56,77.1c0,0,10.43,12.84,8.02,13.24s-6.42,2.01-5.62,4.01c0.8,2.01,4.81,7.22-1.6,10.83
			c-6.42,3.61-16.45,24.07-17.65,45.33C141.71,150.51,144.05,100.54,158.56,77.1z"/>
		<path class="st7" d="M142.12,77.1c0,0-12.79,10.5-10.54,11.45c2.25,0.95,5.78,3.44,4.53,5.21c-1.25,1.76-6.36,5.9-0.96,10.91
			c5.4,5,10.4,27.23,6.63,48.19C141.78,152.85,150.78,103.27,142.12,77.1z"/>
		<polygon class="st8" points="144.88,116.63 150.34,116.81 147.61,124.51 141.92,124.03 		"/>
		<path class="st4" d="M149.91,118.03c0,0,10.93-2.49,15.31,0.35c4.38,2.84-0.44,9.66-6.45,8.46c-6.02-1.2-11.63-2.01-11.63-2.01
			L149.91,118.03z"/>
		<path class="st9" d="M161.77,80.71c-2.4-3.07-3.44-2.74-1.6-2.41c4.28,0.78,17.49,8.24,20.66,13.64
			c3.46,5.88,4.41,36.5-6.42,44.53c-9.03,6.69-47.33-8.82-47.33-8.82l9.63-4.01c0,0,17.65,1.2,22.86,2.41
			c5.21,1.2,7.72-19.1,8.62-21.26C174.61,89.53,161.77,80.71,161.77,80.71z"/>
		<path class="st9" d="M140.11,78.7c0,0-17.85,6.42-22.66,13.24c-4.81,6.82-12.03,27.68-10.83,32.89c1.2,5.21,15.24,7.2,35.3-0.81
			l3.21-8.01c0,0-18.92,3.12-19.25,0.8C122.06,90.34,140.11,78.7,140.11,78.7z"/>
		<path class="st4" d="M129.68,117.19c0,0-3.17-5.43-8.43-7.4c-3.21-1.2-8.22-0.2-8.62,3.01c-0.4,3.21,4.22,5.31,7.72,4.86
			C123.86,117.21,129.68,117.19,129.68,117.19z"/>
		<path class="st5" d="M163.76,50.53c0,0-1.23,11.91-6.18,11.91s-6.75-2.25-11.7,0c-4.95,2.25-7.38-10.92-7.38-10.92l-0.72-0.34
			c0,0,1.8,4.95,0.9,7.65c0,0-0.45,9,0.9,10.35c1.35,1.35,10.8,6.3,13.06,5.85c2.25-0.45,11.7-6.3,12.15-7.65
			c0.45-1.35-0.45-9-0.45-9s-0.45-4.95,0.45-7.65C165.68,48.04,163.76,50.53,163.76,50.53z"/>
		<path class="st10" d="M291.7,268.78l-95.79-94.27l18.78-19.09l95.79,94.27c5.27,5.19,5.34,13.66,0.15,18.94l0,0
			C305.45,273.9,296.97,273.97,291.7,268.78z"/>
		<path class="st11" d="M286.09,268.82l-62.21-61.22l24.35-24.74l62.21,61.22c6.83,6.72,6.92,17.71,0.2,24.55l0,0
			C303.91,275.46,292.93,275.55,286.09,268.82z"/>
		<g>
			<path class="st10" d="M83.63,165.59c-36.45-35.87-36.92-94.7-1.05-131.14C118.44-2,177.28-2.47,213.72,33.4
				c36.45,35.87,36.92,94.7,1.05,131.14C178.9,200.99,120.07,201.46,83.63,165.59z M204.68,42.59
				c-31.38-30.88-82.03-30.47-112.91,0.9s-30.47,82.03,0.9,112.91s82.03,30.47,112.91-0.9S236.06,73.47,204.68,42.59z"/>
		</g>
	</g>
</g>
</svg>
