<?xml version="1.0" encoding="utf-8"?>
<!-- Generator: Adobe Illustrator 25.0.1, SVG Export Plug-In . SVG Version: 6.00 Build 0)  -->
<svg version="1.1" id="Слой_1" xmlns="http://www.w3.org/2000/svg" xmlns:xlink="http://www.w3.org/1999/xlink" x="0px" y="0px"
	 viewBox="0 0 382.3 179.7" style="enable-background:new 0 0 382.3 179.7;" xml:space="preserve">
<style type="text/css">
	.st0{fill-rule:evenodd;clip-rule:evenodd;fill:#A50F32;}
	.st1{display:none;}
	.st2{display:inline;fill-rule:evenodd;clip-rule:evenodd;fill:#A50F32;}
</style>
<g>
	<path class="st0" d="M2.5,61.3c0-2,1.7-3.6,3.6-3.6l75.5-0.1c2,0,3.7,1.6,3.7,3.6v11.2c0,2-1.1,4.8-2.3,6.4L30.2,145
		c-1.3,1.5-0.6,2.9,1.3,2.9h50.2c2,0,3.6,1.6,3.6,3.6v12.1c0,1.9-1.6,3.6-3.6,3.6H3.6c-2,0-3.6-1.7-3.6-3.6v-12.1c0-2,1-4.8,2.2-6.4
		l52.2-65.2c1.3-1.5,0.6-2.8-1.3-2.8L6,77.2c-1.9,0-3.6-1.6-3.6-3.6V61.3H2.5z"/>
	<path class="st0" d="M172.3,100.4c1.9,0,3.6,1.6,3.6,3.6v11.8c0,2-1.7,3.6-3.6,3.6h-45.9c-2,0-3.7,1.7-3.7,3.7V144
		c0,2,1.7,3.7,3.7,3.7h50.7c2,0,3.6,1.6,3.6,3.6v12.4c0,2-1.6,3.6-3.6,3.6H104c-1.9,0-3.6-1.6-3.6-3.6V61.2c0-1.9,1.7-3.6,3.6-3.6
		h73c2,0,3.6,1.7,3.6,3.6v12.3c0,1.9-1.6,3.6-3.6,3.6h-50.6c-2,0-3.7,1.6-3.7,3.6v16.1c0,2,1.7,3.7,3.7,3.7L172.3,100.4L172.3,100.4
		z"/>
	<path class="st0" d="M251.4,163.6c0,2-1.6,3.6-3.6,3.6h-15.9c-2,0-3.6-1.6-3.6-3.6V80.7c0-2-1.7-3.6-3.7-3.6H199
		c-1.9,0-3.6-1.7-3.6-3.6V61.2c0-1.9,1.7-3.6,3.6-3.6h81.6c2,0,3.6,1.7,3.6,3.6v12.3c0,1.9-1.6,3.6-3.6,3.6H255
		c-1.9,0-3.6,1.6-3.6,3.6V163.6z"/>
	<path class="st0" d="M318.4,122.4c-0.7,1.9,0.5,3.5,2.5,3.5h20.6c2,0,3.1-1.6,2.5-3.5l-11.5-36.2c-0.6-1.9-1.6-1.9-2.3,0
		L318.4,122.4z M362.1,167.2c-2,0-4.1-1.5-4.7-3.4l-4.8-15.7c-0.6-1.9-2.7-3.5-4.6-3.5h-33.3c-2,0-4.1,1.5-4.7,3.4l-5.2,15.7
		c-0.6,1.9-2.7,3.4-4.7,3.4h-16.9c-2,0-3.1-1.5-2.4-3.4L317.4,61c0.7-1.9,2.9-3.4,4.8-3.4h18.7c2,0,4.2,1.5,4.8,3.4l36.4,102.8
		c0.7,1.9-0.4,3.4-2.4,3.4H362.1z"/>
</g>
</svg>
