<?xml version="1.0" encoding="utf-8"?>
<!-- Generator: Adobe Illustrator 25.0.1, SVG Export Plug-In . SVG Version: 6.00 Build 0)  -->
<svg version="1.1" id="Слой_1" xmlns="http://www.w3.org/2000/svg" xmlns:xlink="http://www.w3.org/1999/xlink" x="0px" y="0px"
	 viewBox="0 0 185.8 179.7" style="enable-background:new 0 0 185.8 179.7;" xml:space="preserve">
<style type="text/css">
	.st0{display:none;fill-rule:evenodd;clip-rule:evenodd;fill:#A50F32;}
	.st1{fill-rule:evenodd;clip-rule:evenodd;fill:#A50F32;}
</style>
<g>
	<g>
		<path class="st1" d="M99.1,78.5c2.6,0,4.6-1.9,4.6-4.1V4.2c0-2.3-2.1-4.2-4.6-4.2H86.7C84.1,0,82,1.9,82,4.2v70.2
			c0,2.3,2.1,4.1,4.6,4.1C86.6,78.5,99.1,78.5,99.1,78.5z"/>
		<path class="st1" d="M78.7,85.8c0.8-2.5-0.3-5-2.5-5.7L9.5,58.4c-2.2-0.7-4.6,0.7-5.4,3.1L0.2,73.4c-0.8,2.4,0.3,5,2.5,5.7
			l66.7,21.7c2.1,0.7,4.6-0.7,5.3-3.1L78.7,85.8z"/>
		<path class="st1" d="M77.6,107.9c-2.1-1.5-4.9-1.2-6.2,0.6l-41.2,56.8c-1.4,1.9-0.8,4.6,1.3,6.1l10.1,7.3c2,1.5,4.9,1.2,6.2-0.7
			L89,121.2c1.3-1.8,0.7-4.6-1.3-6.1L77.6,107.9z"/>
		<path class="st1" d="M98.1,115.1c-2.1,1.5-2.7,4.2-1.3,6.1L138,178c1.4,1.9,4.1,2.2,6.2,0.7l10.1-7.3c2-1.5,2.7-4.2,1.3-6.1
			l-41.2-56.8c-1.3-1.8-4.1-2.1-6.2-0.6L98.1,115.1z"/>
		<path class="st1" d="M111,97.5c0.8,2.5,3.2,3.8,5.3,3.1L183,79c2.2-0.7,3.3-3.2,2.5-5.7l-3.9-11.9c-0.8-2.4-3.2-3.8-5.4-3.1
			L109.5,80c-2.1,0.7-3.3,3.3-2.5,5.7L111,97.5z"/>
	</g>
</g>
</svg>
