<?xml version="1.0" encoding="utf-8"?>
<!-- Generator: Adobe Illustrator 25.0.1, SVG Export Plug-In . SVG Version: 6.00 Build 0)  -->
<svg version="1.1" id="Слой_1" xmlns="http://www.w3.org/2000/svg" xmlns:xlink="http://www.w3.org/1999/xlink" x="0px" y="0px"
	 viewBox="0 0 595.3 179.7" style="enable-background:new 0 0 595.3 179.7;" xml:space="preserve">
<style type="text/css">
	.st0{fill-rule:evenodd;clip-rule:evenodd;fill:#A50F32;}
</style>
<g>
	<path class="st0" d="M215.5,61.3c0-2,1.7-3.6,3.6-3.6l75.5-0.1c2,0,3.7,1.6,3.7,3.6v11.2c0,2-1.1,4.8-2.3,6.4L243.2,145
		c-1.3,1.5-0.6,2.9,1.3,2.9h50.2c2,0,3.6,1.6,3.6,3.6v12.1c0,1.9-1.6,3.6-3.6,3.6h-78.1c-2,0-3.6-1.7-3.6-3.6v-12.1
		c0-2,1-4.8,2.2-6.4l52.2-65.2c1.3-1.5,0.6-2.8-1.3-2.8l-47.1,0.1c-1.9,0-3.6-1.6-3.6-3.6V61.3z"/>
	<path class="st0" d="M385.3,100.4c1.9,0,3.6,1.6,3.6,3.6v11.8c0,2-1.7,3.6-3.6,3.6h-45.9c-2,0-3.7,1.7-3.7,3.7v20.9
		c0,2,1.7,3.7,3.7,3.7h50.7c2,0,3.6,1.6,3.6,3.6v12.4c0,2-1.6,3.6-3.6,3.6h-73.1c-1.9,0-3.6-1.6-3.6-3.6V61.2c0-1.9,1.7-3.6,3.6-3.6
		H390c2,0,3.6,1.7,3.6,3.6v12.3c0,1.9-1.6,3.6-3.6,3.6h-50.6c-2,0-3.7,1.6-3.7,3.6v16.1c0,2,1.7,3.7,3.7,3.7H385.3z"/>
	<path class="st0" d="M464.4,163.6c0,2-1.6,3.6-3.6,3.6h-15.9c-2,0-3.6-1.6-3.6-3.6V80.7c0-2-1.7-3.6-3.7-3.6H412
		c-1.9,0-3.6-1.7-3.6-3.6V61.2c0-1.9,1.7-3.6,3.6-3.6h81.6c2,0,3.6,1.7,3.6,3.6v12.3c0,1.9-1.6,3.6-3.6,3.6H468
		c-1.9,0-3.6,1.6-3.6,3.6V163.6z"/>
	<path class="st0" d="M531.4,122.4c-0.7,1.9,0.5,3.5,2.5,3.5h20.6c2,0,3.1-1.6,2.5-3.5l-11.5-36.2c-0.6-1.9-1.6-1.9-2.3,0
		L531.4,122.4z M575.1,167.2c-2,0-4.1-1.5-4.7-3.4l-4.8-15.7c-0.6-1.9-2.7-3.5-4.6-3.5h-33.3c-2,0-4.1,1.5-4.7,3.4l-5.2,15.7
		c-0.6,1.9-2.7,3.4-4.7,3.4h-16.9c-2,0-3.1-1.5-2.4-3.4L530.4,61c0.7-1.9,2.9-3.4,4.8-3.4h18.7c2,0,4.2,1.5,4.8,3.4l36.4,102.8
		c0.7,1.9-0.4,3.4-2.4,3.4H575.1z"/>
	<g>
		<path class="st0" d="M99.1,78.5c2.6,0,4.6-1.9,4.6-4.1V4.2c0-2.3-2.1-4.2-4.6-4.2H86.7C84.1,0,82,1.9,82,4.2v70.2
			c0,2.3,2.1,4.1,4.6,4.1H99.1z"/>
		<path class="st0" d="M78.7,85.8c0.8-2.5-0.3-5-2.5-5.7L9.5,58.4c-2.2-0.7-4.6,0.7-5.4,3.1L0.2,73.4c-0.8,2.4,0.3,5,2.5,5.7
			l66.7,21.7c2.1,0.7,4.6-0.7,5.3-3.1L78.7,85.8z"/>
		<path class="st0" d="M77.6,107.9c-2.1-1.5-4.9-1.2-6.2,0.6l-41.2,56.8c-1.4,1.9-0.8,4.6,1.3,6.1l10.1,7.3c2,1.5,4.9,1.2,6.2-0.7
			l41.2-56.8c1.3-1.8,0.7-4.6-1.3-6.1L77.6,107.9z"/>
		<path class="st0" d="M98.1,115.1c-2.1,1.5-2.7,4.2-1.3,6.1l41.2,56.8c1.4,1.9,4.1,2.2,6.2,0.7l10.1-7.3c2-1.5,2.7-4.2,1.3-6.1
			l-41.2-56.8c-1.3-1.8-4.1-2.1-6.2-0.6L98.1,115.1z"/>
		<path class="st0" d="M111,97.5c0.8,2.5,3.2,3.8,5.3,3.1L183,79c2.2-0.7,3.3-3.2,2.5-5.7l-3.9-11.9c-0.8-2.4-3.2-3.8-5.4-3.1
			l-66.7,21.7c-2.1,0.7-3.3,3.3-2.5,5.7L111,97.5z"/>
	</g>
</g>
</svg>
