<?xml version="1.0" encoding="UTF-8"?>
<!DOCTYPE svg PUBLIC "-//W3C//DTD SVG 1.1//EN" "http://www.w3.org/Graphics/SVG/1.1/DTD/svg11.dtd">
<!-- Creator: CorelDRAW -->
<svg xmlns="http://www.w3.org/2000/svg" xml:space="preserve" width="85mm" height="85mm" version="1.1" style="shape-rendering:geometricPrecision; text-rendering:geometricPrecision; image-rendering:optimizeQuality; fill-rule:evenodd; clip-rule:evenodd"
viewBox="0 0 8500 8500"
 xmlns:xlink="http://www.w3.org/1999/xlink"
 xmlns:xodm="http://www.corel.com/coreldraw/odm/2003">
 <defs>
  <style type="text/css">
   <![CDATA[
    .fil0 {fill:#C21F39}
   ]]>
  </style>
 </defs>
 <g id="Слой_x0020_1">
  <metadata id="CorelCorpID_0Corel-Layer"/>
  <g id="_2320444489152">
   <path class="fil0" d="M4519.39 3757.2c111.99,0 200.99,-80.4 200.99,-178.03l0.02 -3035.15c0,-100.51 -89.02,-180.91 -201.01,-180.91l-539.84 0c-109.12,0 -201.01,80.4 -201.01,180.91l0 3035.15c0,97.63 91.89,178.03 201.01,178.03l539.84 0z"/>
   <path class="fil0" d="M3635.79 4075.31c34.6,-106.51 -14.35,-216.01 -107.21,-246.17l-2886.6 -937.92c-95.57,-31.06 -199.55,28.76 -234.16,135.26l-166.82 513.42c-7.38,22.71 -10.84,45.81 -10.75,68.38 0.34,80.62 46.01,154.43 120.68,178.69l2886.61 937.91c92.85,30.17 197.71,-32.37 231.43,-136.15l166.82 -513.42z"/>
   <path class="fil0" d="M3588.11 5032.29c-90.58,-65.83 -209.86,-53.1 -267.26,25.87l-1784 2455.47c-59.08,81.35 -34.33,198.68 56.27,264.51l436.75 317.34c88.27,64.1 209.86,53.09 268.94,-28.23l1784.02 -2455.49c57.38,-78.97 30.3,-198.02 -57.97,-262.19l-436.75 -317.28z"/>
   <path class="fil0" d="M4474.81 5342.12c-90.6,65.83 -115.37,183.2 -57.97,262.19l1784.02 2455.49c59.06,81.3 178.35,94.05 268.95,28.22l436.75 -317.29c88.27,-64.15 115.35,-183.22 56.25,-264.51l-1784.01 -2455.51c-57.38,-78.99 -178.97,-90.01 -267.26,-25.88l-436.73 317.29z"/>
   <path class="fil0" d="M5030.69 4581.28c34.61,106.51 138.58,166.32 231.44,136.16l2886.6 -937.92c95.59,-31.06 144.51,-140.56 109.92,-247.07l-166.79 -513.42c-33.71,-103.77 -138.58,-166.32 -234.17,-135.25l-2886.61 937.91c-92.85,30.16 -140.92,142.4 -107.21,246.17l166.82 513.42z"/>
  </g>
 </g>
</svg>
